<?xml version="1.0" encoding="utf-8"?>
<!DOCTYPE svg PUBLIC "-//W3C//DTD SVG 1.1//EN" "http://www.w3.org/Graphics/SVG/1.1/DTD/svg11.dtd">
<svg style="width:308px;height:308px;" version="1.1" id="图形" xmlns="http://www.w3.org/2000/svg" xmlns:xlink="http://www.w3.org/1999/xlink" x="0px" y="0px" width="1024px" height="1024px" viewBox="0 0 1024 1024" enable-background="new 0 0 1024 1024" xml:space="preserve">
  <path class="svgpath" data-index="path_0" fill="#ea8010" d="M901.731119 134.265471c4.064089 18.514185 2.61908 42.47726 0.767661 55.181302 22.337439 15.609114 58.176687 45.532853 60.05821 91.953785 0.767661 18.875437-7.119682 34.665177-11.018198 46.571454 17.114332 17.881993 43.92227 49.070116 42.778304 89.997001-0.918183 31.714949-22.051448 56.355373-38.428223 72.671939 6.201499 14.149052 9.03131 41.483816 8.519535 62.88802-1.505218 64.859856-50.710804 109.218639-125.128796 109.218639-53.480406 0-165.875055-0.857974-227.965309-1.354696 18.288402 73.755696 38.006762 211.814317-0.857974 276.087138C591.520682 968.924063 553.122564 993.444069 518.878848 993.444069c-60.208731 0-63.595473-25.784389-79.9873-64.965221C344.0929 701.83813 203.099103 572.013053 101.391504 572.013053c-10.370954 0-20.019403-5.343525-25.51345-14.134-1.896575-3.025489-46.195149-67.975658-46.195149-210.429516 0-144.576216 61.894576-234.844157 64.528708-238.065324C99.946494 102.430104 108.496134 98.95305 117.482287 98.396119 241.3467 90.313097 275.244216 80.965692 293.231574 67.433779c33.867411-25.51345 35.989769-36.862796 309.593297-36.862796C777.174305 30.570983 885.625283 60.299045 901.731119 134.265471z" />

</svg>
