<?xml version="1.0" encoding="utf-8"?>
<!DOCTYPE svg PUBLIC "-//W3C//DTD SVG 1.1//EN" "http://www.w3.org/Graphics/SVG/1.1/DTD/svg11.dtd">
<svg style="width:308px;height:308px;" version="1.1" id="图形" xmlns="http://www.w3.org/2000/svg" xmlns:xlink="http://www.w3.org/1999/xlink" x="0px" y="0px" width="1024px" height="1024px" viewBox="0 0 1024 1024" enable-background="new 0 0 1024 1024" xml:space="preserve">
  <path class="svgpath" data-index="path_0" fill="#ea8010" d="M901.731119 134.265471c4.064089 18.514185 2.61908 42.47726 0.767661 55.181302 22.337439 15.609114 58.176687 45.532853 60.05821 91.953785 0.767661 18.875437-7.119682 34.665177-11.018198 46.571454 17.114332 17.881993 43.92227 49.070116 42.778304 89.997001-0.918183 31.714949-22.051448 56.355373-38.428223 72.671939 6.201499 14.149052 9.03131 41.483816 8.519535 62.88802-1.505218 64.859856-50.710804 109.218639-125.128796 109.218639-53.480406 0-165.875055-0.857974-227.965309-1.354696 18.288402 73.755696 38.006762 211.814317-0.857974 276.087138C591.520682 968.924063 553.122564 993.444069 518.878848 993.444069c-60.208731 0-63.595473-25.784389-79.9873-64.965221C344.0929 701.83813 203.099103 572.013053 101.391504 572.013053c-10.370954 0-20.019403-5.343525-25.51345-14.134-1.896575-3.025489-46.195149-67.975658-46.195149-210.429516 0-144.576216 61.894576-234.844157 64.528708-238.065324C99.946494 102.430104 108.496134 98.95305 117.482287 98.396119 241.3467 90.313097 275.244216 80.965692 293.231574 67.433779c33.867411-25.51345 35.989769-36.862796 309.593297-36.862796C777.174305 30.570983 885.625283 60.299045 901.731119 134.265471zM89.891636 347.434485c0 91.02055 19.959194 141.144319 30.570983 165.363281 123.066647 12.553521 273.317536 151.77116 373.956431 392.440512C504.7599 929.938909 514.694341 933.235337 518.878848 933.235337c30.104366 0 31.955784-13.381391 39.978598-26.747729 27.289608-45.397384 10.852624-178.278054-18.544289-262.976687-3.326532-9.573188-2.905071-20.019403 2.739497-28.433573 5.674673-8.41417 14.751139-13.381391 25.287667-13.351286 0 0 195.031133 0.797766 270.969396 0.797766 11.259033 0 63.791151-1.535323 64.920065-50.394708 0.526826-22.819109-14.751139-47.143437-14.751139-47.143437-5.298368-6.878848-7.209996-15.819844-5.494047-24.324328 1.700897-8.519535 7.179891-15.970366 14.705983-20.290342 1.023548-0.587035 34.725386-18.574394 35.447891-44.133 0.948288-32.196619-38.006762-55.798442-38.157284-55.918859-13.291077-9.257092-16.497192-27.921799-7.736822-41.544025 0.3462-0.526826 15.082287-13.441599 14.194208-34.921064-1.384801-33.566368-61.473115-55.121094-61.71395-55.241511-14.901661-6.532647-21.7203-24.218962-15.609114-39.301249 0.090313-0.150522 22.457857-21.012847 17.851889-42.251477-11.590181-53.058945-162.774305-56.295164-240.097369-56.295164-253.478759 0-249.836131 7.029369-273.377745 24.760841C299.026665 138.434926 241.3467 150.521829 133.452653 159.462825 119.318654 182.688343 89.891636 254.562517 89.891636 347.434485z" />

</svg>
