<?xml version="1.0" encoding="utf-8"?>
<!DOCTYPE svg PUBLIC "-//W3C//DTD SVG 1.1//EN" "http://www.w3.org/Graphics/SVG/1.1/DTD/svg11.dtd">
<svg style="width:308px;height:308px;" version="1.1" id="图形" xmlns="http://www.w3.org/2000/svg" xmlns:xlink="http://www.w3.org/1999/xlink" x="0px" y="0px" width="1024px" height="1024px" viewBox="0 0 1024 1024" enable-background="new 0 0 1024 1024" xml:space="preserve">
  <path class="svgpath" data-index="path_0" fill="#00bb9c" d="M773.456416 967.554314c-12.252477 0-24.655476-3.341585-37.916449-10.220432L510.675408 841.2665l-224.849508 116.112539c-0.632192 0.331148-1.896575 0.948288-3.070645 1.475114-30.420462 13.140556-61.44301 7.194943-79.806674-14.224313-13.697486-15.970366-18.363663-37.208996-13.848008-63.038542l41.905277-239.961899L54.850154 472.984742c-31.714949-30.330148-28.794826-59.170131-24.218962-73.650331 7.571248-23.827605 29.246391-40.926885 58.011113-45.758636l249.384566-35.628517 110.136822-219.14473c10.777363-20.681699 32.904072-42.356843 63.264325-42.356843 15.112392 0 43.229869 5.509099 61.774158 42.386947l110.12177 219.114626 252.816463 36.095134c41.574129 7.390622 53.947023 33.852359 57.393973 44.885609 4.304924 13.938321 7.10463 41.393503-22.186918 69.405615l-181.002499 173.250625 43.470704 248.812583c3.883463 29.532383-5.960664 47.293959-14.886609 57.228399C807.308776 960.524945 791.172836 967.554314 773.456416 967.554314z" />

</svg>
