<?xml version="1.0" encoding="utf-8"?>
<!DOCTYPE svg PUBLIC "-//W3C//DTD SVG 1.1//EN" "http://www.w3.org/Graphics/SVG/1.1/DTD/svg11.dtd">
<svg style="width:308px;height:308px;" version="1.1" id="图形" xmlns="http://www.w3.org/2000/svg" xmlns:xlink="http://www.w3.org/1999/xlink" x="0px" y="0px" width="1024px" height="1024px" viewBox="0 0 1024 1024" enable-background="new 0 0 1024 1024" xml:space="preserve">
  <path class="svgpath" data-index="path_0" fill="#56abe4" d="M602.839924 993.444069c-273.61858 0-275.725886-11.349346-309.593297-36.862796-17.987359-13.51686-51.884874-22.879318-175.764339-30.96234-8.986153-0.556931-17.535793-4.033985-23.270675-10.973041-2.634132-3.236219-64.528708-93.489108-64.528708-238.065324 0-142.468911 44.298574-207.404028 46.195149-210.429516 5.494047-8.790475 15.142496-14.134 25.51345-14.134 101.7076 0 242.701396-129.825077 337.484992-356.450742 16.406879-39.195884 19.778568-64.980273 79.9873-64.980273 34.243716 0 72.641834 24.520006 91.607585 55.979068 38.864736 64.257769 19.131324 202.31639 0.857974 276.087138 62.090254-0.496722 174.484904-1.354696 227.965309-1.354696 74.40294 0 123.623578 44.358783 125.128796 109.218639 0.496722 21.404204-2.318036 48.738968-8.519535 62.88802 16.376775 16.316566 37.51004 40.95699 38.428223 72.671939 1.143966 40.926885-25.663972 72.115008-42.778304 89.997001 3.913568 11.906277 11.785859 27.696016 11.018198 46.571454-1.881523 46.420932-37.72077 76.344671-60.05821 91.953785 1.851418 12.704042 3.296428 36.667117-0.767661 55.181302C885.625283 963.716008 777.174305 993.444069 602.839924 993.444069z" />

</svg>
